<?xml version="1.0" encoding="utf-8"?>
<!-- Generator: Adobe Illustrator 19.2.0, SVG Export Plug-In . SVG Version: 6.00 Build 0)  -->
<svg version="1.1" id="Layer_1" xmlns="http://www.w3.org/2000/svg" xmlns:xlink="http://www.w3.org/1999/xlink" x="0px" y="0px"
	 viewBox="0 0 228 265.4" style="enable-background:new 0 0 228 265.4;" xml:space="preserve">
<style type="text/css">
	.st0{fill:#FFFFFF;}
</style>
<g>
	<g>
		<path class="st0" d="M56.5,0H31.1H0v28.2v154.7v28.2v0h87.6v0v-28.2V28.2V0H56.5z M56.5,182.9H31.1V28.2h25.4V182.9z"/>
	</g>
</g>
<g>
	<g>
		<polygon class="st0" points="154.7,0 154.7,95.3 129.4,95.3 129.4,0 98.3,0 98.3,95.3 98.3,95.3 98.3,117.7 98.3,117.7 
			98.3,211.1 129.4,211.1 129.4,117.7 154.7,117.7 154.7,211.1 185.8,211.1 185.8,117.7 185.8,95.3 185.8,0 		"/>
	</g>
</g>
<g>
	<g>
		<rect x="196.6" class="st0" width="31.1" height="157.6"/>
	</g>
</g>
<g>
	<g>
		<rect x="196.6" y="182.9" class="st0" width="31.1" height="28.2"/>
	</g>
</g>
<g>
	<g>
		<polygon class="st0" points="27.8,227 16.2,257.4 4.9,227 0,227 0,262.7 3.8,262.7 3.8,233.4 14.7,262.7 18.2,262.7 28.9,233.4 
			28.9,262.7 32.7,262.7 32.7,227 		"/>
	</g>
</g>
<g>
	<g>
		<polygon class="st0" points="63.1,259.2 63.1,246 81.9,246 81.9,242.5 63.1,242.5 63.1,230.5 83.1,230.5 83.1,227 59.3,227 
			59.3,262.7 84,262.7 84,259.2 		"/>
	</g>
</g>
<g>
	<g>
		<g>
			<path class="st0" d="M138.1,237.9c-0.7-2.1-1.7-4-3.1-5.6c-1.3-1.6-2.9-2.9-4.8-3.8c-1.9-0.9-4-1.4-6.4-1.4h-13.3v35.7h13.3
				c2.3,0,4.3-0.5,6.2-1.4c1.9-0.9,3.5-2.2,4.8-3.8c1.4-1.6,2.4-3.5,3.2-5.7c0.8-2.2,1.1-4.5,1.1-7.1
				C139.2,242.4,138.8,240.1,138.1,237.9z M134.3,250.9c-0.7,1.8-1.6,3.3-2.7,4.5c-1.2,1.2-2.5,2.2-4.1,2.8c-1.6,0.7-3.3,1-5.2,1
				h-7.9v-28.8h7.9c1.9,0,3.6,0.3,5.2,0.8c1.6,0.6,3,1.4,4.2,2.6c1.2,1.2,2.1,2.7,2.7,4.5c0.7,1.8,1,3.9,1,6.4
				C135.3,247.1,135,249.2,134.3,250.9z"/>
		</g>
	</g>
</g>
<g>
	<g>
		<rect x="167.6" y="227" class="st0" width="3.8" height="35.7"/>
	</g>
</g>
<g>
	<g>
		<path class="st0" d="M215.1,227h-5.2l-13.2,35.7h4.1l4-10.9h15.3l4,10.9h4L215.1,227z M206,248.4l6.4-17.9l6.4,17.9H206z"/>
	</g>
</g>
</svg>
